<mxfile host="app.diagrams.net" modified="2022-06-27T08:12:22.970Z" agent="5.0 (X11; Linux x86_64) AppleWebKit/537.36 (KHTML, like Gecko) Chrome/102.0.0.0 Safari/537.36" etag="yBNeAh5GT3nlZ-YtTKuk" version="20.0.3" type="github">
  <diagram id="qsGkfahCcK6hP6HTaz9K" name="第 1 页">
    <mxGraphModel dx="1350" dy="773" grid="1" gridSize="10" guides="1" tooltips="1" connect="1" arrows="1" fold="1" page="1" pageScale="1" pageWidth="850" pageHeight="1100" math="0" shadow="0">
      <root>
        <mxCell id="0" />
        <mxCell id="1" parent="0" />
        <mxCell id="Qc6tCEiCQsdd0BLJXGnD-1" value="" style="rounded=0;whiteSpace=wrap;html=1;fillColor=none;" vertex="1" parent="1">
          <mxGeometry x="40" y="80" width="760" height="590" as="geometry" />
        </mxCell>
        <mxCell id="Qc6tCEiCQsdd0BLJXGnD-2" value="" style="rounded=1;whiteSpace=wrap;html=1;fillColor=none;" vertex="1" parent="1">
          <mxGeometry x="80" y="120" width="240" height="350" as="geometry" />
        </mxCell>
        <mxCell id="Qc6tCEiCQsdd0BLJXGnD-3" value="" style="rounded=1;whiteSpace=wrap;html=1;fillColor=none;" vertex="1" parent="1">
          <mxGeometry x="440" y="120" width="320" height="260" as="geometry" />
        </mxCell>
        <mxCell id="Qc6tCEiCQsdd0BLJXGnD-4" value="" style="rounded=1;whiteSpace=wrap;html=1;fillColor=none;" vertex="1" parent="1">
          <mxGeometry x="440" y="480" width="320" height="172" as="geometry" />
        </mxCell>
        <mxCell id="Qc6tCEiCQsdd0BLJXGnD-5" value="AWS EC2" style="rounded=0;whiteSpace=wrap;html=1;fillColor=none;strokeWidth=0;" vertex="1" parent="1">
          <mxGeometry x="440" y="90" width="80" height="30" as="geometry" />
        </mxCell>
        <mxCell id="Qc6tCEiCQsdd0BLJXGnD-6" value="GitHub Action" style="rounded=0;whiteSpace=wrap;html=1;fillColor=none;strokeWidth=0;" vertex="1" parent="1">
          <mxGeometry x="80" y="90" width="80" height="30" as="geometry" />
        </mxCell>
        <mxCell id="Qc6tCEiCQsdd0BLJXGnD-7" value="Promise System" style="rounded=0;whiteSpace=wrap;html=1;fillColor=none;strokeWidth=0;" vertex="1" parent="1">
          <mxGeometry x="440" y="450" width="90" height="30" as="geometry" />
        </mxCell>
        <mxCell id="Qc6tCEiCQsdd0BLJXGnD-10" value="Top Repo Runner" style="swimlane;strokeWidth=1;fillColor=none;startSize=23;align=center;fontStyle=0" vertex="1" parent="1">
          <mxGeometry x="480" y="150" width="230" height="30" as="geometry">
            <mxRectangle x="470" y="140" width="140" height="30" as="alternateBounds" />
          </mxGeometry>
        </mxCell>
        <mxCell id="Qc6tCEiCQsdd0BLJXGnD-11" value="SCTS Repo Runner" style="swimlane;strokeWidth=1;fillColor=none;startSize=23;align=center;fontStyle=0" vertex="1" parent="1">
          <mxGeometry x="480" y="210" width="230" height="30" as="geometry">
            <mxRectangle x="470" y="140" width="140" height="30" as="alternateBounds" />
          </mxGeometry>
        </mxCell>
        <mxCell id="Qc6tCEiCQsdd0BLJXGnD-12" value="Promise Repo Runner" style="swimlane;strokeWidth=1;fillColor=none;startSize=23;align=center;fontStyle=0" vertex="1" parent="1">
          <mxGeometry x="480" y="270" width="230" height="30" as="geometry">
            <mxRectangle x="470" y="140" width="140" height="30" as="alternateBounds" />
          </mxGeometry>
        </mxCell>
        <mxCell id="Qc6tCEiCQsdd0BLJXGnD-13" value="New Repo Runner" style="swimlane;strokeWidth=1;fillColor=none;startSize=23;align=center;fontStyle=0" vertex="1" parent="1">
          <mxGeometry x="480" y="330" width="230" height="30" as="geometry">
            <mxRectangle x="470" y="140" width="140" height="30" as="alternateBounds" />
          </mxGeometry>
        </mxCell>
        <mxCell id="Qc6tCEiCQsdd0BLJXGnD-14" value="Top Repo CICD Job" style="shape=process;whiteSpace=wrap;html=1;backgroundOutline=1;strokeWidth=1;fillColor=none;" vertex="1" parent="1">
          <mxGeometry x="110" y="150" width="170" height="30" as="geometry" />
        </mxCell>
        <mxCell id="Qc6tCEiCQsdd0BLJXGnD-15" value="SCTS Repo CICD Job" style="shape=process;whiteSpace=wrap;html=1;backgroundOutline=1;strokeWidth=1;fillColor=none;" vertex="1" parent="1">
          <mxGeometry x="110" y="237" width="170" height="30" as="geometry" />
        </mxCell>
        <mxCell id="Qc6tCEiCQsdd0BLJXGnD-16" value="Promise Repo CICD Job" style="shape=process;whiteSpace=wrap;html=1;backgroundOutline=1;strokeWidth=1;fillColor=none;" vertex="1" parent="1">
          <mxGeometry x="110" y="323" width="170" height="30" as="geometry" />
        </mxCell>
        <mxCell id="Qc6tCEiCQsdd0BLJXGnD-17" value="New Repo CICD Job" style="shape=process;whiteSpace=wrap;html=1;backgroundOutline=1;strokeWidth=1;fillColor=none;" vertex="1" parent="1">
          <mxGeometry x="110" y="410" width="170" height="30" as="geometry" />
        </mxCell>
        <mxCell id="Qc6tCEiCQsdd0BLJXGnD-20" value="Staging" style="ellipse;whiteSpace=wrap;html=1;strokeWidth=1;fillColor=none;" vertex="1" parent="1">
          <mxGeometry x="553" y="540" width="90" height="50" as="geometry" />
        </mxCell>
        <mxCell id="Qc6tCEiCQsdd0BLJXGnD-21" value="Prod" style="ellipse;whiteSpace=wrap;html=1;strokeWidth=1;fillColor=none;" vertex="1" parent="1">
          <mxGeometry x="448" y="490" width="90" height="50" as="geometry" />
        </mxCell>
        <mxCell id="Qc6tCEiCQsdd0BLJXGnD-22" value="Dev" style="ellipse;whiteSpace=wrap;html=1;strokeWidth=1;fillColor=none;" vertex="1" parent="1">
          <mxGeometry x="658" y="590" width="90" height="50" as="geometry" />
        </mxCell>
        <mxCell id="Qc6tCEiCQsdd0BLJXGnD-23" value="" style="shape=flexArrow;endArrow=classic;html=1;rounded=0;exitX=0.996;exitY=0.18;exitDx=0;exitDy=0;exitPerimeter=0;entryX=0;entryY=0.25;entryDx=0;entryDy=0;" edge="1" parent="1" source="Qc6tCEiCQsdd0BLJXGnD-2" target="Qc6tCEiCQsdd0BLJXGnD-3">
          <mxGeometry width="50" height="50" relative="1" as="geometry">
            <mxPoint x="400" y="400" as="sourcePoint" />
            <mxPoint x="450" y="350" as="targetPoint" />
          </mxGeometry>
        </mxCell>
        <mxCell id="Qc6tCEiCQsdd0BLJXGnD-24" value="listening and running" style="rounded=0;whiteSpace=wrap;html=1;fillColor=none;strokeWidth=0;" vertex="1" parent="1">
          <mxGeometry x="320" y="150" width="120" height="30" as="geometry" />
        </mxCell>
        <mxCell id="Qc6tCEiCQsdd0BLJXGnD-25" value="" style="shape=flexArrow;endArrow=classic;html=1;rounded=0;exitX=0.996;exitY=0.18;exitDx=0;exitDy=0;exitPerimeter=0;entryX=0;entryY=0.25;entryDx=0;entryDy=0;" edge="1" parent="1">
          <mxGeometry width="50" height="50" relative="1" as="geometry">
            <mxPoint x="440" y="286" as="sourcePoint" />
            <mxPoint x="319.03999999999996" y="284" as="targetPoint" />
          </mxGeometry>
        </mxCell>
        <mxCell id="Qc6tCEiCQsdd0BLJXGnD-26" value="response" style="rounded=0;whiteSpace=wrap;html=1;fillColor=none;strokeWidth=0;" vertex="1" parent="1">
          <mxGeometry x="319" y="248" width="120" height="30" as="geometry" />
        </mxCell>
        <mxCell id="Qc6tCEiCQsdd0BLJXGnD-27" value="" style="shape=flexArrow;endArrow=classic;html=1;rounded=0;entryX=0;entryY=0.5;entryDx=0;entryDy=0;exitX=0.5;exitY=1;exitDx=0;exitDy=0;" edge="1" parent="1" source="Qc6tCEiCQsdd0BLJXGnD-2" target="Qc6tCEiCQsdd0BLJXGnD-4">
          <mxGeometry width="50" height="50" relative="1" as="geometry">
            <mxPoint x="375" y="610" as="sourcePoint" />
            <mxPoint x="425" y="560" as="targetPoint" />
            <Array as="points">
              <mxPoint x="200" y="570" />
            </Array>
          </mxGeometry>
        </mxCell>
        <mxCell id="Qc6tCEiCQsdd0BLJXGnD-28" value="delivery and testing" style="rounded=0;whiteSpace=wrap;html=1;fillColor=none;strokeWidth=0;" vertex="1" parent="1">
          <mxGeometry x="210" y="530" width="200" height="30" as="geometry" />
        </mxCell>
      </root>
    </mxGraphModel>
  </diagram>
</mxfile>
